name rise49.5252peak65.1548fall88.8305.mot
datacolumns 19
datarows 18
range 22.72657300000000 22.75490800000000
endheader
time	ground_force1_vx	ground_force1_vy	ground_force1_vz	ground_force1_px	ground_force1_py	ground_force1_pz	ground_force2_vx	ground_force2_vy	ground_force2_vz	ground_force2_px	ground_force2_py	ground_force2_pz	ground_torque1_x	ground_torque1_y	ground_torque1_z	ground_torque2_x	ground_torque2_y	ground_torque2_z	
22.72657300000000	-1.96399100000000	696.28425400000003	36.98790100000000	0.25800600000000	0.00000000000000	0.11853900000000	0.00000000000000	0.00000000000000	0.00000000000000	0.00000000000000	0.00000000000000	0.00000000000000	0.00000000000000	19.47416800000000	0.00000000000000	0.00000000000000	0.00000000000000	0.00000000000000	
22.72823800000000	-2.40809300000000	697.35881900000004	37.04067000000000	0.25743500000000	0.00000000000000	0.11852200000000	0.00000000000000	0.00000000000000	0.00000000000000	0.00000000000000	0.00000000000000	0.00000000000000	0.00000000000000	19.59983400000000	0.00000000000000	0.00000000000000	0.00000000000000	0.00000000000000	
22.72990700000000	-2.85732500000000	698.49236699999994	37.09873400000000	0.25687300000000	0.00000000000000	0.11850400000000	0.00000000000000	0.00000000000000	0.00000000000000	0.00000000000000	0.00000000000000	0.00000000000000	0.00000000000000	19.73002100000000	0.00000000000000	0.00000000000000	0.00000000000000	0.00000000000000	
22.73157100000000	-3.31203800000000	699.68388800000002	37.16191800000000	0.25631800000000	0.00000000000000	0.11848500000000	0.00000000000000	0.00000000000000	0.00000000000000	0.00000000000000	0.00000000000000	0.00000000000000	0.00000000000000	19.86453300000000	0.00000000000000	0.00000000000000	0.00000000000000	0.00000000000000	
22.73324600000000	-3.77255900000000	700.93239100000005	37.23005400000000	0.25576700000000	0.00000000000000	0.11846700000000	0.00000000000000	0.00000000000000	0.00000000000000	0.00000000000000	0.00000000000000	0.00000000000000	0.00000000000000	20.00317300000000	0.00000000000000	0.00000000000000	0.00000000000000	0.00000000000000	
22.73491100000000	-4.23919100000000	702.23689700000000	37.30298400000000	0.25521900000000	0.00000000000000	0.11844900000000	0.00000000000000	0.00000000000000	0.00000000000000	0.00000000000000	0.00000000000000	0.00000000000000	0.00000000000000	20.14574200000000	0.00000000000000	0.00000000000000	0.00000000000000	0.00000000000000	
22.73657900000000	-4.71220700000000	703.59644200000002	37.38056000000000	0.25467000000000	0.00000000000000	0.11843100000000	0.00000000000000	0.00000000000000	0.00000000000000	0.00000000000000	0.00000000000000	0.00000000000000	0.00000000000000	20.29204000000000	0.00000000000000	0.00000000000000	0.00000000000000	0.00000000000000	
22.73824400000000	-5.19185100000000	705.01007600000003	37.46264400000000	0.25411900000000	0.00000000000000	0.11841300000000	0.00000000000000	0.00000000000000	0.00000000000000	0.00000000000000	0.00000000000000	0.00000000000000	0.00000000000000	20.44186500000000	0.00000000000000	0.00000000000000	0.00000000000000	0.00000000000000	
22.73990700000000	-5.67833500000000	706.47685799999999	37.54910400000000	0.25356300000000	0.00000000000000	0.11839500000000	0.00000000000000	0.00000000000000	0.00000000000000	0.00000000000000	0.00000000000000	0.00000000000000	0.00000000000000	20.59501200000000	0.00000000000000	0.00000000000000	0.00000000000000	0.00000000000000	
22.74157300000000	-6.17183600000000	707.99585200000001	37.63982200000000	0.25300000000000	0.00000000000000	0.11837700000000	0.00000000000000	0.00000000000000	0.00000000000000	0.00000000000000	0.00000000000000	0.00000000000000	0.00000000000000	20.75127700000000	0.00000000000000	0.00000000000000	0.00000000000000	0.00000000000000	
22.74324500000000	-6.67249700000000	709.56612900000005	37.73468700000000	0.25242900000000	0.00000000000000	0.11836000000000	0.00000000000000	0.00000000000000	0.00000000000000	0.00000000000000	0.00000000000000	0.00000000000000	0.00000000000000	20.91045400000000	0.00000000000000	0.00000000000000	0.00000000000000	0.00000000000000	
22.74491200000000	-7.18042300000000	711.18676000000005	37.83359900000000	0.25184800000000	0.00000000000000	0.11834300000000	0.00000000000000	0.00000000000000	0.00000000000000	0.00000000000000	0.00000000000000	0.00000000000000	0.00000000000000	21.07233600000000	0.00000000000000	0.00000000000000	0.00000000000000	0.00000000000000	
22.74657100000000	-7.69567800000000	712.85681099999999	37.93646700000000	0.25125400000000	0.00000000000000	0.11832600000000	0.00000000000000	0.00000000000000	0.00000000000000	0.00000000000000	0.00000000000000	0.00000000000000	0.00000000000000	21.23671500000000	0.00000000000000	0.00000000000000	0.00000000000000	0.00000000000000	
22.74824400000000	-8.21828900000000	714.57534099999998	38.04321000000000	0.25064600000000	0.00000000000000	0.11830900000000	0.00000000000000	0.00000000000000	0.00000000000000	0.00000000000000	0.00000000000000	0.00000000000000	0.00000000000000	21.40338300000000	0.00000000000000	0.00000000000000	0.00000000000000	0.00000000000000	
22.74990700000000	-8.74823900000000	716.34139700000003	38.15375800000000	0.25002300000000	0.00000000000000	0.11829300000000	0.00000000000000	0.00000000000000	0.00000000000000	0.00000000000000	0.00000000000000	0.00000000000000	0.00000000000000	21.57213100000000	0.00000000000000	0.00000000000000	0.00000000000000	0.00000000000000	
22.75157400000000	-9.28546900000000	718.15400899999997	38.26805000000000	0.24938300000000	0.00000000000000	0.11827800000000	0.00000000000000	0.00000000000000	0.00000000000000	0.00000000000000	0.00000000000000	0.00000000000000	0.00000000000000	21.74274900000000	0.00000000000000	0.00000000000000	0.00000000000000	0.00000000000000	
22.75324100000000	-9.82987700000000	720.01218300000005	38.38603200000000	0.24872500000000	0.00000000000000	0.11826300000000	0.00000000000000	0.00000000000000	0.00000000000000	0.00000000000000	0.00000000000000	0.00000000000000	0.00000000000000	21.91502800000000	0.00000000000000	0.00000000000000	0.00000000000000	0.00000000000000	
22.75490800000000	-10.38131900000000	721.91489999999999	38.50766300000000	0.24804900000000	0.00000000000000	0.11824800000000	0.00000000000000	0.00000000000000	0.00000000000000	0.00000000000000	0.00000000000000	0.00000000000000	0.00000000000000	22.08875800000000	0.00000000000000	0.00000000000000	0.00000000000000	0.00000000000000	
